<svg width="247" height="252" viewBox="0 0 247 252" fill="none" xmlns="http://www.w3.org/2000/svg">
<path d="M123 89C113 89 111 87 111 77C111 87 109 89 99 89C109 89 111 91 111 101C111 91 113 89 123 89Z" fill="#8BC147"/>
<path d="M211 129C188.5 129 184 124.5 184 102C184 124.5 179.5 129 157 129C179.5 129 184 133.5 184 156C184 133.5 188.5 129 211 129Z" fill="#0F68A3"/>
<path d="M234 193C216.5 193 213 189.5 213 172C213 189.5 209.5 193 192 193C209.5 193 213 196.5 213 214C213 196.5 216.5 193 234 193Z" fill="#8BC147"/>
<path d="M144 226C122.333 226 118 221.667 118 200C118 221.667 113.667 226 92 226C113.667 226 118 230.333 118 252C118 230.333 122.333 226 144 226Z" fill="#0F68A3"/>
<path d="M49 158C34 158 31 155 31 140C31 155 28 158 13 158C28 158 31 161 31 176C31 161 34 158 49 158Z" fill="#0F68A3"/>
<path d="M68 115C43.8333 115 39 110.167 39 86C39 110.167 34.1667 115 10 115C34.1667 115 39 119.833 39 144C39 119.833 43.8333 115 68 115Z" fill="#8BC147"/>
<rect x="134" y="62" width="15" height="15" fill="#0F68A3"/>
<rect x="154" y="62" width="15" height="15" fill="#0F68A3"/>
<rect x="134" y="82" width="15" height="15" fill="#0F68A3"/>
<rect x="154" y="82" width="15" height="15" fill="#0F68A3"/>
<path d="M63 22L92.5 106.5L87.5 108L55.5 25.5C52 14 61.5 15 63 22Z" fill="#8BC147"/>
<path d="M116.5 111.5C108.5 102.5 73.5 109 72 129L116.5 111.5Z" fill="#8BC147"/>
<path d="M115 115L74 131C73.6 153.4 64.1667 167.667 59.5 172C70.7 172 79.5 157 82.5 149.5C84.1 155.9 79.5897 163.499 77.1346 166.499C85.071 166.38 91.3455 155.803 93.5 150.5C95.1 154.5 94.1667 159.167 93.5 161C104.3 156.2 104.5 144 104 139C108.5 153 116.333 150.833 121.5 148C117.9 146.8 113.667 141.5 112 139C122.8 147 134.167 145 138.5 143C127.3 141.4 122.167 135.333 121 132.5C135.4 142.754 148.667 139.439 153.5 136.5C141.5 136.9 122.833 122.333 115 115Z" fill="#8BC147"/>
<path d="M34.5 178C59 193.5 132.9 213.2 200.5 178C175 188.73 95.5 200 34.5 178Z" fill="#8BC147"/>
<path d="M69 68L64 57L0 97.5L69 68Z" fill="#0F68A3"/>
<path d="M154.5 0L75.5 50L81 64.5L154.5 32.5L237.5 99L154.5 0Z" fill="#0F68A3"/>
<path d="M246.5 126.5C246.5 104.9 207.5 92 186.5 89C218.5 99.4 228 114 228 126.5C223 159 144.5 168.268 99.5 162.5C114.5 168 138.667 168.167 150.5 168.5C218 167 246.5 147 246.5 126.5Z" fill="#0F68A3"/>
</svg>
